<?xml version="1.0" encoding="utf-8"?>
<!-- Generator: Adobe Illustrator 23.0.1, SVG Export Plug-In . SVG Version: 6.00 Build 0)  -->
<svg version="1.1" id="Layer_1" xmlns="http://www.w3.org/2000/svg" xmlns:xlink="http://www.w3.org/1999/xlink" x="0px" y="0px"
	 viewBox="0 0 98.2 40.4" style="enable-background:new 0 0 98.2 40.4;" xml:space="preserve">
<style type="text/css">
	.st0{fill:#008AD1;}
</style>
<title>Untitled-2 Copy 2</title>
<desc>Created with Sketch.</desc>
<g>
	<g>
		<path class="st0" d="M80.4,40.4L62.9,30.3V10.1L80.4,0l17.5,10.1v20.2L80.4,40.4z M64.9,29.2l15.5,8.9l15.5-8.9V11.3L80.4,2.4
			l-15.5,8.9V29.2z"/>
		<g>
			<path class="st0" d="M11.2,25.2C9.9,26.4,8.4,27,6.7,27c-4.4,0-6.3-3-6.3-6.1c0-3.1,2-6.3,6.3-6.3c1.6,0,3.1,0.6,4.4,1.8
				l-1.5,1.4c-0.8-0.8-1.8-1.1-2.9-1.1c-2.9,0-4.1,2.1-4.1,4.1c0,2,1.2,4,4.1,4c1,0,2.2-0.4,3-1.2L11.2,25.2z"/>
			<path class="st0" d="M23,26.7h-2.7l-3.5-4h-2.2v4h-2.2V14.8c1.9,0,3.8,0,5.6,0c2.8,0,4.3,1.9,4.3,3.9c0,1.6-0.7,3.3-3,3.7
				l3.6,4.1V26.7z M14.7,16.9v3.8h3.4c1.4,0,2-0.9,2-1.9s-0.6-1.9-2-1.9H14.7z"/>
			<path class="st0" d="M35.5,20.9c0,3.1-1.9,6.1-6.1,6.1c-4.2,0-6.1-3-6.1-6.1c0-3.1,2-6.3,6.1-6.3C33.5,14.6,35.6,17.8,35.5,20.9z
				 M25.6,20.9c0.1,2,1.1,4,3.9,4c2.8,0,3.9-2.1,3.9-4.1c0-2-1.1-4.2-3.9-4.2C26.7,16.7,25.5,18.9,25.6,20.9z"/>
			<path class="st0" d="M44.9,17.7c-0.4-0.7-1.5-1.3-2.8-1.3c-1.7,0-2.5,0.7-2.5,1.6c0,1,1.2,1.3,2.6,1.5c2.5,0.3,4.8,1,4.8,3.8
				c0,2.6-2.3,3.8-5,3.8c-2.4,0-4.3-0.7-5.2-2.9l1.9-1c0.5,1.3,1.9,1.9,3.3,1.9c1.4,0,2.7-0.5,2.7-1.8c0-1.1-1.2-1.6-2.7-1.7
				c-2.4-0.3-4.7-0.9-4.7-3.6c0-2.4,2.4-3.4,4.6-3.5c1.8,0,3.8,0.5,4.7,2.4L44.9,17.7z"/>
			<path class="st0" d="M56.1,17.7c-0.4-0.7-1.5-1.3-2.8-1.3c-1.7,0-2.5,0.7-2.5,1.6c0,1,1.2,1.3,2.6,1.5c2.5,0.3,4.8,1,4.8,3.8
				c0,2.6-2.3,3.8-5,3.8c-2.4,0-4.3-0.7-5.2-2.9l1.9-1c0.5,1.3,1.9,1.9,3.3,1.9c1.4,0,2.7-0.5,2.7-1.8c0-1.1-1.2-1.6-2.7-1.7
				c-2.4-0.3-4.7-0.9-4.7-3.6c0-2.4,2.4-3.4,4.6-3.5c1.8,0,3.8,0.5,4.7,2.4L56.1,17.7z"/>
		</g>
		<g>
			<path class="st0" d="M84.5,12.9h3.1V13l-5,7.2l5.2,7.5v0.1h-3.2l-3.8-5.6l-3.8,5.6h-3.2v-0.1l5.2-7.5l-5-7.2v-0.1H77l3.7,5.6
				L84.5,12.9z"/>
		</g>
	</g>
</g>
</svg>
